# xmcd
#
# Track frame offsets:
#	182
#	25555
#	54010
#	69922
#	109025
#	139455
#	163255
#	188057
#
# Disc length: 2792 seconds
#
# Revision: 2
# Processed by: cddbd v1.5.1PL0 Copyright (c) Steve Scherf et al.
# Submitted via: dBpowerAMP V4.0
#
DISCID=620ae608
DTITLE=Grace Jones - Warm Leatherette
DYEAR=1980
DGENRE=Club
TTITLE0=Warm Leatherette
TTITLE1=Private Life
TTITLE2=A Rolling Stone
TTITLE3=Love is the Drug
TTITLE4=The Hunter Gets Captured by the Game
TTITLE5=Bullshit
TTITLE6=Breakdown
TTITLE7=Pars
EXTD=
EXTT0=
EXTT1=
EXTT2=
EXTT3=
EXTT4=
EXTT5=
EXTT6=
EXTT7=
PLAYORDER=
